<svg xmlns="http://www.w3.org/2000/svg" viewBox="0 0 511.998 511.998">
  <g fill="#e38100">
    <path d="M324.282 366.931l74.624-29.874a17.065 17.065 0 0 0 10.729-15.824v-22.584l-85.353 34.141v34.141zM187.716 366.931V332.79l-85.353-34.141v22.584a17.065 17.065 0 0 0 10.729 15.824l74.624 29.874z"/>
  </g>
  <path d="M193.051 484.104l29.327 12.564a85.718 85.718 0 0 0 67.241 0l29.327-12.521c33.732-14.348 54.464-48.711 51.425-85.242l-11.949-142.933 12.274-146.68c2.868-34.688-15.714-67.625-46.893-83.1l-6.734-3.354a137.052 137.052 0 0 0-122.141 0l-6.734 3.354c-31.18 15.475-49.761 48.412-46.893 83.1l12.274 146.68-11.949 142.967c-3.005 36.506 17.719 70.826 51.425 85.165z" fill="#ffbc05"/>
  <path d="M142.223 391.599c48.028 63.341 129.489 91.499 206.376 71.33a85 85 0 0 1-29.652 21.176l-29.327 12.564a85.718 85.718 0 0 1-67.241 0l-29.327-12.521c-33.732-14.348-54.464-48.711-51.425-85.242l.596-7.307z" fill="#e38100"/>
  <path d="M322.096 365.071l2.185-1.425a17.064 17.064 0 0 0 7.545-15.927l-7.545-74.778H187.716l-7.511 74.778a17.072 17.072 0 0 0 7.511 15.927l2.151 1.425c40.057 26.604 92.165 26.604 132.229 0z" fill="#23aec8"/>
  <path d="M320.808 365.856c-39.911 25.785-91.311 25.478-130.906-.785l-2.185-1.425a17.064 17.064 0 0 1-7.545-15.927l5.744-57.187a196.065 196.065 0 0 0 134.892 75.324z" fill="#1967a3"/>
  <path d="M324.282 153.548H187.716l-6.555-39.331a17.075 17.075 0 0 1 8.535-17.728l16.55-9.193a102.412 102.412 0 0 1 99.488 0l16.55 9.193a17.07 17.07 0 0 1 8.535 17.728l-6.537 39.331z" fill="#23aec8"/>
  <path d="M189.705 96.49l8.339-4.635a280.832 280.832 0 0 0 117.036 61.693H187.716l-6.555-39.331a17.072 17.072 0 0 1 8.544-17.727z" fill="#1967a3"/>
  <g fill="#555160">
    <path d="M339.927 405.79l-34.142 51.216-14.205-9.47 34.142-51.216zM220.397 447.536l-14.205 9.47-34.142-51.217 14.205-9.47z"/>
  </g>
  <path d="M332.006 264.397H180.035l-8.279 82.46a25.542 25.542 0 0 0 11.326 23.899l2.151 1.425c42.881 28.568 98.737 28.568 141.618 0l2.159-1.434a25.536 25.536 0 0 0 11.318-23.899l-8.322-82.451zm-12.47 92.121l-2.159 1.434c-37.171 24.761-85.584 24.761-122.755 0l-2.151-1.425a8.537 8.537 0 0 1-3.764-7.955l6.734-67.105H316.6l6.734 67.113a8.545 8.545 0 0 1-3.798 7.938zM180.487 162.084h151.024l7.742-46.458a25.65 25.65 0 0 0-12.803-26.605l-16.55-9.193a110.341 110.341 0 0 0-107.767 0l-16.567 9.193a25.662 25.662 0 0 0-12.803 26.596l7.724 46.467zm13.366-58.143l16.55-9.193a93.386 93.386 0 0 1 91.191 0l16.55 9.193a8.59 8.59 0 0 1 4.268 8.877l-5.36 32.195H194.946l-5.369-32.204a8.526 8.526 0 0 1 4.276-8.868zM220.397 447.536l-14.205 9.47-34.142-51.217 14.205-9.47zM340.042 405.97l-34.158 51.208-14.2-9.473 34.157-51.208z"/>
  <path d="M414.423 291.582a8.534 8.534 0 0 0-7.963-.854l-35.379 14.152-4.123-48.907 12.223-145.954c3.312-38.213-17.165-74.548-51.57-91.499l-6.743-3.354a146.32 146.32 0 0 0-129.737 0l-6.734 3.354c-34.423 16.943-54.916 53.278-51.605 91.499l12.248 145.954-4.097 48.942-35.379-14.152c-4.37-1.767-9.346.341-11.113 4.711a8.413 8.413 0 0 0-.623 3.175v22.584a25.49 25.49 0 0 0 16.098 23.779l26.741 10.695-3.576 42.489c-3.363 40.193 19.461 78.004 56.589 93.752l29.327 12.521a94.563 94.563 0 0 0 73.95 0l29.327-12.521c37.146-15.739 59.986-53.551 56.623-93.752l-3.559-42.489 26.741-10.695a25.49 25.49 0 0 0 16.081-23.779v-22.584a8.543 8.543 0 0 0-3.747-7.067zm-277.919 45.672l-20.237-8.1a8.487 8.487 0 0 1-5.369-7.921v-9.978l25.606 10.242v15.757zm179.089 138.998l-29.327 12.513a77.378 77.378 0 0 1-60.533 0l-29.327-12.513c-30.343-12.88-48.993-43.786-46.244-76.639l11.949-143.641-12.299-147.414c-2.689-31.231 14.049-60.908 42.173-74.752l6.743-3.354a129.143 129.143 0 0 1 114.536 0l6.734 3.354c28.124 13.844 44.87 43.522 42.182 74.752l-12.291 147.414 12.018 143.684c2.713 32.852-15.963 63.742-46.314 76.596zm85.506-155.019a8.487 8.487 0 0 1-5.369 7.921l-20.237 8.1v-15.756l25.606-10.242v9.977z"/>
</svg>