<svg xmlns="http://www.w3.org/2000/svg" width="512" height="512">
  <path d="M413.599 219.315c-47.305.212-91.854 17.607-126.855 49.216l-42.851-.425-.425-42.851c31.609-35.001 49.004-79.55 49.216-126.855l29.698-.001 91.218 91.218-.001 29.698z" fill="#ffd396"/>
  <path d="M413.599 219.315c-47.305.212-91.854 17.607-126.855 49.216l-42.851-.425 124.098-124.098 45.609 45.609-.001 29.698z" fill="#ffb64c"/>
  <path fill="#f7f0eb" d="M445.416 45.37l42.426-42.426 21.213 21.213-42.426 42.426z"/>
  <path fill="#e1d3ce" d="M506.107 115.52l5.882 29.417-53.033 10.605-5.883-29.417z"/>
  <path fill="#f7f0eb" d="M396.492 5.89l-10.605 53.034-29.417-5.883L367.075.007z"/>
  <path d="M153.689 485.59c-35.213 35.213-92.066 35.213-127.279 0s-35.213-92.066 0-127.279c27.577-27.577 68.732-33.093 102.248-17.395L236.894 232.68c2.333-2.333 4.454-4.879 6.575-7.424l43.276 43.276c-2.545 2.121-5.091 4.242-7.424 6.575L171.084 383.342c15.698 33.516 10.182 74.671-17.395 102.248z" fill="#ff637b"/>
  <path fill="#e1d3ce" d="M498.449 13.545l10.606 10.607-42.426 42.426-10.606-10.607z"/>
  <path d="M153.689 485.59c-35.213 35.213-92.066 35.213-127.279 0l238.696-238.696 21.638 21.638c-2.545 2.121-5.091 4.242-7.424 6.575L171.084 383.342c15.698 33.516 10.182 74.671-17.395 102.248z" fill="#e63950"/>
  <path d="M487.845 215.074l-10.607 10.607c-17.606 17.606-46.032 17.607-63.64 0L286.32 98.401c-17.607-17.607-17.606-46.034 0-63.64l10.607-10.607 190.918 190.92z" fill="#ffb64c"/>
  <path d="M487.845 215.074l-10.607 10.607c-17.606 17.606-46.032 17.607-63.64 0l-63.64-63.64 42.426-42.426 95.461 95.459z" fill="#ff9100"/>
</svg>