<svg xmlns="http://www.w3.org/2000/svg" viewBox="0 0 513 513" width="512" height="512">
  <circle cx="325" cy="256.5" r="178" fill="#b3b6c3"/>
  <circle cx="325" cy="256.5" r="103.324" fill="#898998"/>
  <circle cx="325" cy="256.5" r="26.7" fill="#686c83"/>
  <path d="M325 68.5c-100.309 0-182.517 78.968-187.733 178h-84.24c-5.523 0-10 4.478-10 10s4.477 10 10 10h84.24c5.216 99.032 87.424 178 187.733 178 103.664 0 188-84.337 188-188s-84.336-188-188-188zm92.481 328.181l-2.32-4.019c-2.761-4.783-8.878-6.423-13.66-3.66-4.783 2.761-6.422 8.877-3.66 13.66l2.337 4.048a166.779 166.779 0 0 1-65.177 17.484V419.5c0-5.522-4.477-10-10-10s-10 4.478-10 10v4.694a166.745 166.745 0 0 1-65.177-17.484l2.337-4.048c2.762-4.783 1.123-10.899-3.66-13.66-4.783-2.76-10.898-1.122-13.66 3.66l-2.32 4.019a169.36 169.36 0 0 1-47.701-47.701l4.019-2.321c4.783-2.761 6.422-8.877 3.66-13.66-2.761-4.783-8.877-6.422-13.66-3.66l-4.048 2.337a166.779 166.779 0 0 1-17.484-65.177H162c5.523 0 10-4.478 10-10s-4.477-10-10-10h-4.694a166.745 166.745 0 0 1 17.484-65.177l4.048 2.337a9.995 9.995 0 0 0 13.66-3.66c2.762-4.783 1.123-10.899-3.66-13.66l-4.019-2.321a169.36 169.36 0 0 1 47.701-47.701l2.32 4.019a9.995 9.995 0 0 0 13.66 3.66c4.783-2.761 6.422-8.877 3.66-13.66l-2.337-4.048A166.777 166.777 0 0 1 315 88.806V93.5c0 5.522 4.477 10 10 10s10-4.478 10-10v-4.694a166.745 166.745 0 0 1 65.177 17.484l-2.337 4.048c-2.762 4.783-1.123 10.899 3.66 13.66a9.995 9.995 0 0 0 13.66-3.66l2.32-4.019a169.36 169.36 0 0 1 47.701 47.701l-4.019 2.321c-4.783 2.761-6.422 8.877-3.66 13.66a9.995 9.995 0 0 0 13.66 3.66l4.048-2.337a166.779 166.779 0 0 1 17.484 65.177H488c-5.523 0-10 4.478-10 10s4.477 10 10 10h4.694a166.745 166.745 0 0 1-17.484 65.177l-4.048-2.337c-4.783-2.761-10.898-1.122-13.66 3.66-2.762 4.783-1.123 10.899 3.66 13.66l4.019 2.321a169.35 169.35 0 0 1-47.7 47.699z"/>
  <path d="M325 143.176c-62.487 0-113.324 50.837-113.324 113.324S262.513 369.824 325 369.824 438.324 318.987 438.324 256.5 387.487 143.176 325 143.176zm0 206.648c-51.459 0-93.324-41.865-93.324-93.324s41.865-93.324 93.324-93.324 93.324 41.865 93.324 93.324-41.865 93.324-93.324 93.324z"/>
  <path d="M325 219.8c-20.236 0-36.7 16.464-36.7 36.7s16.464 36.7 36.7 36.7 36.7-16.464 36.7-36.7-16.464-36.7-36.7-36.7zm0 53.4c-9.208 0-16.7-7.491-16.7-16.7s7.492-16.7 16.7-16.7 16.7 7.491 16.7 16.7-7.492 16.7-16.7 16.7zM264.07 249.43a10.076 10.076 0 0 0-7.07-2.93c-2.63 0-5.21 1.069-7.07 2.93-1.86 1.86-2.93 4.44-2.93 7.07s1.07 5.21 2.93 7.069A10.077 10.077 0 0 0 257 266.5c2.63 0 5.21-1.07 7.07-2.931 1.86-1.859 2.93-4.439 2.93-7.069s-1.07-5.21-2.93-7.07zM383 256.5c0 2.63 1.07 5.21 2.93 7.069A10.077 10.077 0 0 0 393 266.5c2.63 0 5.21-1.07 7.07-2.931 1.86-1.859 2.93-4.439 2.93-7.069s-1.07-5.21-2.93-7.07-4.44-2.93-7.07-2.93-5.21 1.069-7.07 2.93a10.076 10.076 0 0 0-2.93 7.07zM325 198.5c2.63 0 5.21-1.07 7.07-2.931 1.86-1.859 2.93-4.439 2.93-7.069s-1.07-5.21-2.93-7.07-4.44-2.93-7.07-2.93-5.21 1.069-7.07 2.93c-1.86 1.86-2.93 4.44-2.93 7.07s1.07 5.21 2.93 7.069A10.072 10.072 0 0 0 325 198.5zM325 314.5c-2.63 0-5.21 1.069-7.07 2.93-1.86 1.86-2.93 4.44-2.93 7.07s1.07 5.21 2.93 7.069A10.077 10.077 0 0 0 325 334.5c2.63 0 5.21-1.07 7.07-2.931 1.86-1.859 2.93-4.439 2.93-7.069s-1.07-5.21-2.93-7.07-4.44-2.93-7.07-2.93zM373.08 218.42c2.63 0 5.21-1.07 7.07-2.93 1.87-1.86 2.93-4.44 2.93-7.07 0-2.64-1.06-5.21-2.93-7.07a10.016 10.016 0 0 0-7.07-2.93c-2.63 0-5.21 1.06-7.07 2.93a10.06 10.06 0 0 0-2.93 7.07c0 2.63 1.07 5.21 2.93 7.07 1.87 1.86 4.44 2.93 7.07 2.93zM276.92 294.58c-2.64 0-5.21 1.069-7.07 2.93a10.033 10.033 0 0 0-2.93 7.07c0 2.64 1.06 5.21 2.93 7.069a10.017 10.017 0 0 0 7.07 2.931c2.63 0 5.21-1.061 7.07-2.931 1.86-1.859 2.93-4.439 2.93-7.069s-1.07-5.21-2.93-7.07a10.071 10.071 0 0 0-7.07-2.93zM373.08 294.58c-2.63 0-5.21 1.069-7.07 2.93s-2.93 4.44-2.93 7.07c0 2.64 1.07 5.21 2.93 7.069a10.034 10.034 0 0 0 7.07 2.931c2.64 0 5.21-1.061 7.07-2.931a10.013 10.013 0 0 0 2.93-7.069c0-2.63-1.06-5.21-2.93-7.07a10.054 10.054 0 0 0-7.07-2.93zM276.92 198.42c-2.64 0-5.21 1.06-7.07 2.93a10.017 10.017 0 0 0-2.93 7.07c0 2.63 1.06 5.21 2.93 7.07 1.86 1.859 4.44 2.93 7.07 2.93s5.2-1.07 7.07-2.93c1.86-1.86 2.93-4.44 2.93-7.07 0-2.64-1.07-5.21-2.93-7.07a10.029 10.029 0 0 0-7.07-2.93zM107.405 314.5H10c-5.523 0-10 4.478-10 10s4.477 10 10 10h97.405c5.523 0 10-4.478 10-10s-4.477-10-10-10zM50 198.5h63c5.523 0 10-4.478 10-10s-4.477-10-10-10H50c-5.523 0-10 4.478-10 10s4.477 10 10 10zM10 198.5c2.63 0 5.21-1.07 7.07-2.931C18.93 193.71 20 191.13 20 188.5s-1.07-5.21-2.93-7.07-4.44-2.93-7.07-2.93-5.21 1.069-7.07 2.93C1.07 183.29 0 185.87 0 188.5s1.07 5.21 2.93 7.069A10.072 10.072 0 0 0 10 198.5z"/>
</svg>