<svg xmlns="http://www.w3.org/2000/svg" width="512" height="512" transform="scale(-1 1)">
  <rect width="100%" height="100%" fill="none"/>
  <g class="currentLayer">
    <path fill="#fff" stroke="#dadada" stroke-width="2" stroke-linejoin="round" d="M144.101 339.706L41.21 231.868l-2.198-37.363L220.33 18.132l45.604 1.099 14.835 40.11L250 108.79l-32.967 28.022-17.582 23.627 3.846 13.186c.145.145 227.617-2.602 227.617-2.602s29.121 13.187 28.976 13.042c.145.145 13.332 29.266 13.332 28.716 0-.549-3.846 267.583-3.991 267.438.145.145-32.822 22.123-32.967 21.978.145.145-49.306-26.778-49.45-26.923.144.145-.405-60.844-.55-60.99.145.146.694-59.744.55-59.89.144.146.144-38.865 0-39.01.144.145-.955-31.723-1.1-31.869.145.146-.954-18.536-1.099-18.68.145.144-1.503-14.141-1.648-14.287.145.146-30.075 6.739-30.22 6.594.145.145-61.943.145-61.943.145s-57.692 1.648-57.837 1.503c.145.145-20.185-.404-20.185-.404s-14.835-1.1-14.98-1.244c.145.145.145 14.43 0 14.286l81.319 81.318c.145.145-5.35 47.948-5.495 47.802.145.146-34.47 13.332-34.615 13.187.145.145-27.327 1.794-94.91-74.03z" class="selected" color="#000"/>
    <path d="M431.078 159.387H207.66l69.66-69.657c9.928-9.928 15.395-23.128 15.395-37.168s-5.468-27.239-15.395-37.167C267.392 5.467 254.192 0 240.152 0s-27.239 5.468-37.166 15.395L43.598 174.783c-9.928 9.928-15.395 23.128-15.395 37.166s5.468 27.238 15.395 37.167l159.389 159.387c9.927 9.928 23.127 15.396 37.166 15.396 14.039 0 27.24-5.468 37.168-15.395 9.928-9.928 15.395-23.127 15.395-37.167s-5.468-27.24-15.395-37.168l-69.66-69.658h171.092v194.927c0 28.982 23.579 52.562 52.562 52.562 28.939 0 52.483-23.58 52.482-52.562V211.397c0-28.678-23.649-52.01-52.719-52.01zm32.321 300.051c0 17.735-14.393 32.163-32.085 32.163-17.735 0-32.163-14.428-32.163-32.163V254.312c0-5.633-4.567-10.199-10.199-10.199H183.037a10.197 10.197 0 0 0-9.423 6.297 10.202 10.202 0 0 0 2.211 11.115l87.071 87.069c6.075 6.075 9.42 14.152 9.42 22.744 0 8.591-3.345 16.668-9.42 22.742s-14.152 9.42-22.744 9.42c-8.591 0-16.668-3.345-22.742-9.42L58.023 234.693c-6.075-6.076-9.42-14.152-9.42-22.743s3.345-16.668 9.42-22.743L217.41 29.818c6.075-6.075 14.151-9.42 22.742-9.42 8.592 0 16.67 3.345 22.744 9.42s9.42 14.152 9.42 22.743c0 8.592-3.345 16.669-9.42 22.743l-87.071 87.07a10.2 10.2 0 0 0 7.212 17.411h248.042c17.821 0 32.32 14.181 32.32 31.611v248.042z"/>
    <path d="M176.483 312.227l-3.019-3.019c-3.985-3.983-10.441-3.983-14.425 0-3.983 3.984-3.983 10.442 0 14.425l3.019 3.019a10.165 10.165 0 0 0 7.212 2.987c2.61 0 5.22-.995 7.213-2.987 3.983-3.984 3.983-10.442 0-14.425zM151.299 287.042l-70.42-70.42c-3.985-3.983-10.441-3.983-14.425 0-3.983 3.984-3.983 10.442 0 14.425l70.42 70.42a10.165 10.165 0 0 0 7.212 2.987c2.611 0 5.221-.995 7.213-2.987 3.982-3.984 3.982-10.442 0-14.425z"/>
  </g>
</svg>